<?xml version="1.0" encoding="utf-8"?>
<!-- Generator: Adobe Illustrator 26.0.1, SVG Export Plug-In . SVG Version: 6.00 Build 0)  -->
<svg version="1.1" id="Capa_1" xmlns="http://www.w3.org/2000/svg" xmlns:xlink="http://www.w3.org/1999/xlink" x="0px" y="0px"
	 viewBox="0 0 232 59" style="enable-background:new 0 0 232 59;" xml:space="preserve">
<style type="text/css">
	.st0{fill:#F9BA15;}
</style>
<path id="XMLID_00000080204040996410192840000010907952032862743720_" class="st0" d="M20.92,8.98c-2.6,0.01-4.8,0.86-6.6,2.54
	c-1.82,1.66-2.72,3.75-2.71,6.29l0.01,1.78l5.82-0.03l0.03,6.95l-5.82,0.03l0.11,23.32l-7.02,0.03L4.63,26.57l-2.94,0.01l-0.03-6.95
	l2.94-0.01l-0.01-1.78C4.57,13.52,6.2,9.8,9.46,6.7c3.28-3.1,7.09-4.68,11.43-4.72L20.92,8.98z M24.75,1.96l7.02-0.03l0.22,47.84
	l-7.02,0.03L24.75,1.96z M144.91,31.21c0.02,5.11-1.79,9.52-5.45,13.21c-3.66,3.65-8.06,5.48-13.19,5.51
	c-5.16,0.02-9.57-1.77-13.24-5.38c-3.67-3.64-5.52-8.02-5.54-13.16c-0.02-5.14,1.78-9.54,5.42-13.21c3.66-3.69,8.06-5.55,13.19-5.57
	s9.55,1.79,13.24,5.45C143.03,21.71,144.89,26.09,144.91,31.21z M137.89,31.24c-0.01-3.17-1.18-5.91-3.5-8.2
	c-2.32-2.3-5.07-3.44-8.27-3.42c-3.2,0.01-5.94,1.18-8.24,3.5c-2.27,2.29-3.4,5.04-3.39,8.23c0.01,3.22,1.17,5.97,3.46,8.24
	c2.29,2.27,5.05,3.4,8.27,3.39c3.22-0.01,5.96-1.17,8.24-3.46C136.77,37.19,137.91,34.44,137.89,31.24z M172.24,28.17
	c-0.01-2.37-0.89-4.42-2.63-6.15c-1.74-1.73-3.8-2.59-6.18-2.57c-2.37,0.01-4.43,0.89-6.15,2.63c-1.73,1.74-2.59,3.8-2.57,6.18
	l0.1,20.96l-7.02,0.03l-0.1-20.96c-0.02-4.18,1.55-7.86,4.71-11.05c3.16-3.19,6.83-4.79,11-4.81c4.15-0.02,7.83,1.55,11.01,4.71
	c3.21,3.18,4.83,6.85,4.84,11l0.1,20.96l-7.02,0.03L172.24,28.17z M219.46,30.87c0.02,5.11-1.79,9.52-5.45,13.21
	c-3.66,3.65-8.06,5.48-13.19,5.51c-5.16,0.02-9.57-1.77-13.24-5.38c-3.67-3.64-5.52-8.02-5.54-13.16c-0.02-5.11,1.71-9.5,5.21-13.17
	c3.5-3.71,7.77-5.58,12.82-5.61c4.75-0.02,8.85,1.62,12.32,4.91l-0.07-16.06l7.02-0.03L219.46,30.87z M212.44,30.9
	c-0.01-3.17-1.18-5.91-3.5-8.2c-2.32-2.3-5.07-3.44-8.27-3.42c-3.2,0.01-5.94,1.18-8.24,3.5c-2.27,2.29-3.4,5.04-3.39,8.23
	c0.01,3.22,1.17,5.97,3.46,8.24c2.29,2.27,5.05,3.4,8.27,3.39c3.22-0.01,5.96-1.17,8.24-3.46C211.32,36.85,212.46,34.1,212.44,30.9z
	 M223.16,12.73l7.02-0.03l0.17,36.16l-7.02,0.03L223.16,12.73z M57.54,12.97l-7.28,18.64l-7.54-18.57l-7.98,0.04l11.58,29.14
	l-6.88,16.04l7.94-0.04L65.5,12.93L57.54,12.97z M226.61,0.75c-1.98,0.01-3.57,1.62-3.56,3.6c0.01,1.98,1.62,3.57,3.6,3.56
	c1.98-0.01,3.57-1.62,3.56-3.6C230.2,2.34,228.59,0.74,226.61,0.75z M100.02,18.36c-3.58-3.7-7.88-5.54-12.91-5.52
	c-4.75,0.02-8.86,1.71-12.31,5.05L74.74,1.74l-7.06,0.03l0.14,29.96c0.01,3.01,0.65,5.77,1.91,8.27c1.3,0.2,2.59,0.4,3.9,0.59
	c0.11,0.01,0.28,0.01,0.37-0.06c1.31-1.02,4.74-3.31,6.05-4.33c0.01-0.01,0.01-0.02,0.03-0.09c-0.36-0.11-2.67-1.55-6.69-3.89
	c-0.82-0.48-0.95-0.51-0.19-1.21c0.44-0.4,0.89-0.78,1.31-1.2c0.46-0.46,1-0.67,1.62-0.69c2.12-0.08,7.73,1.94,9.98,1.86
	c0.35-0.02,0.6-0.16,0.89-0.35c1.67-1,5.11-3.01,6.95-3.91c1.52-0.75,5.27-2.79,6.77-0.69c0.43,0.59,1.51,2.1-2.77,5.18
	c-1.7,1.47-20.69,12.5-23.88,14.4c3.55,3.21,7.77,4.81,12.65,4.79c5.14-0.02,9.55-1.87,13.23-5.54c3.68-3.71,5.51-8.14,5.48-13.28
	C105.4,26.51,103.6,22.11,100.02,18.36z"/>
</svg>
